<svg width="23" height="23" viewBox="0 0 23 23" fill="none" xmlns="http://www.w3.org/2000/svg">
<g id="copy">
<path id="Icon" d="M15.8968 17.047C16.9196 17.047 17.431 17.047 17.8217 16.8479C18.1653 16.6729 18.4447 16.3935 18.6198 16.0498C18.8189 15.6592 18.8189 15.1477 18.8189 14.1249V5.35872C18.8189 4.3359 18.8189 3.82449 18.6198 3.43382C18.4447 3.09018 18.1653 2.81079 17.8217 2.6357C17.431 2.43665 16.9196 2.43665 15.8968 2.43665H10.7832C9.76034 2.43665 9.24892 2.43665 8.85826 2.6357C8.51462 2.81079 8.23523 3.09018 8.06014 3.43382C7.86108 3.82449 7.86108 4.3359 7.86108 5.35872M7.13057 20.6996H12.2442C13.267 20.6996 13.7784 20.6996 14.1691 20.5005C14.5127 20.3254 14.7921 20.0461 14.9672 19.7024C15.1663 19.3117 15.1663 18.8003 15.1663 17.7775V9.0113C15.1663 7.98848 15.1663 7.47707 14.9672 7.08641C14.7921 6.74277 14.5127 6.46338 14.1691 6.28829C13.7784 6.08923 13.267 6.08923 12.2442 6.08923H7.13057C6.10775 6.08923 5.59634 6.08923 5.20567 6.28829C4.86203 6.46338 4.58264 6.74277 4.40755 7.08641C4.2085 7.47707 4.2085 7.98848 4.2085 9.0113V17.7775C4.2085 18.8003 4.2085 19.3117 4.40755 19.7024C4.58264 20.0461 4.86203 20.3254 5.20567 20.5005C5.59634 20.6996 6.10775 20.6996 7.13057 20.6996Z" stroke="white" stroke-width="1.0436"/>
</g>
</svg>
