<svg width="92" height="53" viewBox="0 0 92 53" fill="none" xmlns="http://www.w3.org/2000/svg">
<g id="Group 427319106">
<path id="Ellipse 439" d="M52.8736 26.4368C52.8736 30.9409 51.7228 35.3704 49.5304 39.305C47.338 43.2395 44.1766 46.5487 40.3463 48.9185C36.516 51.2883 32.1437 52.6402 27.6443 52.846C23.1448 53.0517 18.6674 52.1044 14.6368 50.094C10.6062 48.0836 7.15614 45.0767 4.61383 41.3587C2.07153 37.6406 0.521327 33.3346 0.110304 28.8493C-0.300719 24.3639 0.441064 19.8479 2.26528 15.7297C4.0895 11.6115 6.93565 8.02764 10.5337 5.31816L18.7811 16.2704C17.049 17.5747 15.6789 19.2999 14.8007 21.2824C13.9225 23.2649 13.5654 25.4389 13.7633 27.5981C13.9612 29.7574 14.7074 31.8303 15.9313 33.6201C17.1551 35.41 18.816 36.8575 20.7563 37.8253C22.6966 38.7931 24.852 39.2491 27.0181 39.1501C29.1841 39.051 31.2889 38.4002 33.1328 37.2594C34.9767 36.1186 36.4985 34.5256 37.554 32.6315C38.6094 30.7374 39.1634 28.6051 39.1634 26.4368H52.8736Z" fill="url(#paint0_linear_1_517)"/>
<path id="Ellipse 438" d="M92 26.4368C92 41.0374 80.1639 52.8736 65.5632 52.8736C50.9626 52.8736 39.1265 41.0374 39.1265 26.4368C39.1265 11.8362 50.9626 0 65.5632 0C80.1639 0 92 11.8362 92 26.4368ZM52.8367 26.4368C52.8367 33.4655 58.5346 39.1634 65.5632 39.1634C72.5919 39.1634 78.2898 33.4655 78.2898 26.4368C78.2898 19.4081 72.5919 13.7102 65.5632 13.7102C58.5346 13.7102 52.8367 19.4081 52.8367 26.4368Z" fill="url(#paint1_linear_1_517)"/>
</g>
<defs>
<linearGradient id="paint0_linear_1_517" x1="1.14943" y1="28" x2="52.8746" y2="27.8349" gradientUnits="userSpaceOnUse">
<stop stop-color="#213555"/>
<stop offset="0.526042" stop-color="#12446F" stop-opacity="0.910573"/>
<stop offset="1" stop-color="#1886D7" stop-opacity="0.83"/>
</linearGradient>
<linearGradient id="paint1_linear_1_517" x1="40.2759" y1="28" x2="92.0011" y2="27.8349" gradientUnits="userSpaceOnUse">
<stop stop-color="#213555"/>
<stop offset="0.526042" stop-color="#12446F" stop-opacity="0.910573"/>
<stop offset="1" stop-color="#1886D7" stop-opacity="0.83"/>
</linearGradient>
</defs>
</svg>
